<svg id="Layer_1" data-name="Layer 1" xmlns="http://www.w3.org/2000/svg" viewBox="0 0 342.74 77.44"><defs><style>.cls-1{fill:#fff;}</style></defs><title>logo</title><path class="cls-1" d="M187.23,146.53c-2.39,8.32-7.52,14.59-15.39,19a23.26,23.26,0,0,1-5,2.05,12.64,12.64,0,0,1-8.89-.91,23.1,23.1,0,0,1-3.65-2.39,1.22,1.22,0,0,1-.34-0.57,0.63,0.63,0,0,1,.34-0.57c0.11,0,.46.11,0.91,0.23a16,16,0,0,0,3.31,0,11.25,11.25,0,0,0,4.22-1.25l4.1-2.39c7.87-4.79,12.88-11.51,14.82-20.06q0.86-4.1-1.37-5.81c-1.94-1.25-4.56-1.25-7.87-.11-5.36,1.82-11.86,5.93-19.27,12.31a101.55,101.55,0,0,0-9.35,9.23c-7.41,8.32-11.06,16.19-11.06,23.71q0,6.5,6.16,9.23a12.67,12.67,0,0,0,5.24,1c7.18,0,15.73-3,25.76-9a43.73,43.73,0,0,0,6.27-4.79,3.22,3.22,0,0,1,.46,1.71c0,2.17-2.05,4.79-6,7.87a39.29,39.29,0,0,1-10.49,5.59,43.49,43.49,0,0,1-15.73,3.19c-5.36,0-9.69-1.37-13-4-3.53-2.85-5.36-7-5.36-12.2,0-10.6,5.13-21.43,15.5-32.6a63.72,63.72,0,0,1,13.91-11.51c6.5-3.88,12.77-5.81,18.58-5.81a14.76,14.76,0,0,1,8.78,2.51,11,11,0,0,1,4.9,7.52A19,19,0,0,1,187.23,146.53Z" transform="translate(-126.01 -127.72)"/><path class="cls-1" d="M208.31,151.66c-2.51,4.9-5.81,8.44-9.92,10.37a41.83,41.83,0,0,1-4.22,1.82L192,167.39q4.62-3.59,8.21-3.42c2.51,0.23,3.65,2.05,3.53,5.47-0.11,2.51-1.25,5.36-3.31,8.66l-3.88,5.59a4.78,4.78,0,0,0-1.14,2.17,0.3,0.3,0,0,0,.34.34c0.57,0,2.28-.91,5.13-2.62a12.81,12.81,0,0,1,2.39-1.37,1.44,1.44,0,0,1,.68-0.11,1,1,0,0,1,1.14,1.25,2.65,2.65,0,0,1-.8,1.71c-1.48,1.48-5,3.31-10.49,5.36-3.88.91-5.93,0.68-6.27-.8-0.23-1,1.14-3.65,4.22-7.87,3.31-4.56,5-7.52,5.36-8.89,0.57-2.62-.23-3.88-2.17-3.88-1.71,0-3.88,1.48-6.61,4.33l-8.32,14c-1.37,2.39-2.17,3.65-5.47,3.19a1.09,1.09,0,0,1-1-.34c-0.23-.34-0.11-0.91.34-1.82,1.48-2.39,3.19-5.24,4.9-8.32,1-1.71,4-7,9.12-15.5-2.28-.34-3.65-1.25-4-2.51a8.88,8.88,0,0,0,1.82.23,16.72,16.72,0,0,0,3.76-.46l1.71-2.85,4.22-7.07,1.71-2.74,2.05-3.42,0.8-1.14c2.39-3.31,4.67-4.79,6.84-4.22s3.19,2.17,3.19,5.13A14,14,0,0,1,208.31,151.66Zm-1.14-7.52c-1.25.34-3.19,2.85-5.59,7.3h-0.11c-0.34.57-1.25,2.28-2.85,4.9l-2.05,3.42c6-2.39,11.29-8.21,11.4-14.14C208,144.82,207.75,144,207.18,144.14Z" transform="translate(-126.01 -127.72)"/><path class="cls-1" d="M226.33,186.09a32.2,32.2,0,0,1-14.82,4.67c-5.36.23-8.32-1.82-8.89-6-0.46-3.42.68-7.18,3.53-11.4a27.49,27.49,0,0,1,6.38-6.73c3.08-2.39,5.93-3.31,8.44-2.74a5.8,5.8,0,0,1,4.33,7,12.23,12.23,0,0,1-2.05,4.67,13.66,13.66,0,0,1-10,5.7c-1.94.11-3.42-.23-4.33-1.14q-0.51,5.64,5.47,6.16c2.85,0.23,6.27-.8,10.37-3.19a9.67,9.67,0,0,1,2.05-1.14c1.37-.34,2.05,0,2.05,1.14S228,185.06,226.33,186.09Zm-5-13.79q1-3.76-2.74-3.76c-1.94,0-4,1.25-6,3.88s-3.08,4.33-3,5.13c0.11,0.57.8,0.8,2.05,0.91a7.91,7.91,0,0,0,3.88-.8c3-1.37,4.9-3.08,5.81-5.24V172.3Z" transform="translate(-126.01 -127.72)"/><path class="cls-1" d="M252.77,187.34c-4.22,2.39-8,3.31-11.29,3-1.37-.11-1.82-1.14-1.48-3.08-2.62,2.17-5,3.31-7.3,3.31-3.31,0-5.13-1.94-5.7-5.81-0.68-5,1.6-10.26,6.84-15.62,3.42-3.53,6.73-5.36,9.8-5.36q5.64,0,5.47,6.84a25,25,0,0,1,2.51-3.88,4.14,4.14,0,0,1,4.1-1.48c1,0.11,1.48.57,1.37,1.25s-2.74,5.24-7.64,13.34a53.77,53.77,0,0,0-3.53,6.16c0.8,0.34,2.39-.11,4.79-1.48l4.67-2.62c1.48-.34,2.17,0,2.17,1.14S256,185.52,252.77,187.34ZM246,171.27a2.91,2.91,0,0,0-3.08-2.74c-2.39,0-4.56,1.48-6.73,4.45s-3.08,5.59-3.08,8c0,3.08,1.25,4.67,3.76,4.67,1.82,0,3.76-1.14,5.7-3.42l1.14-2.17,1.94-3.53a3,3,0,0,1,.23-0.57A9.31,9.31,0,0,0,246,171.27Z" transform="translate(-126.01 -127.72)"/><path class="cls-1" d="M283.21,185.63l-3,1.71c-3.31,1.94-8,3.08-13.79,3.31a8.48,8.48,0,0,1-3-.23c-2.85-.11-4.22-2.28-3.88-6.5v-0.57l-11.06,18.47a11.44,11.44,0,0,1-2.05,2.74,5.17,5.17,0,0,1-3.42.57,2.51,2.51,0,0,1-1-.34c-0.23-.34-0.11-0.91.34-1.94l4.9-8.32,12.43-21.09c2.85-4.9,4.79-8,5.81-9a3.75,3.75,0,0,1,3.42-.8c1,0.11,1.48.57,1.37,1.25a11.48,11.48,0,0,1-1,2.51q4.27-3.42,7.87-3.42c3.08,0,4.67,1.82,4.9,5.36q0.51,9.06-8.55,16.76c0.91,0.23,2.51-.34,4.79-1.6l4.67-2.62c1.37-.34,2.05.11,2.05,1.14C285.15,183.81,284.47,184.72,283.21,185.63Zm-9.69-16.87c-2.51,0-5.13,1.71-7.75,5.13s-4,6.38-4,9.12c0,1.71.8,2.62,2.51,2.62s4-1,6.38-3.19c3.31-3,5.24-6.27,5.59-9.8C276.49,170,275.57,168.76,273.52,168.76Z" transform="translate(-126.01 -127.72)"/><path class="cls-1" d="M306.7,187.34A11.72,11.72,0,0,1,300,188.6a7.35,7.35,0,0,1-2.28-.34,19.29,19.29,0,0,1-5.24,2.28,10.53,10.53,0,0,1-7.07-.57,5.93,5.93,0,0,1-3.42-5.7c0-5.13,2.74-10.26,8.32-15.62,4.22-4,8.44-5.47,12.43-4.67,3.31,0.68,4.9,2.85,4.9,6.61,0,4.45-1.94,9.12-5.93,13.91a5.87,5.87,0,0,0,1.25.23,6.38,6.38,0,0,0,3.08-.91,36.61,36.61,0,0,1,3.42-1.94c1.37-.34,2.05,0,2.05,1.14S309.89,185.52,306.7,187.34Zm-3.76-16.19a3,3,0,0,0-3.31-2.62c-2.17,0-4.33,1.37-6.73,4-2.62,3.08-4,5.93-4,8.55q0,5,4.45,4.45a6.82,6.82,0,0,1-1.14-2.85,7.07,7.07,0,0,1,3.08-6.84,10.17,10.17,0,0,0,3.19,6.84,15.81,15.81,0,0,0,4.1-6.73A8.75,8.75,0,0,0,302.93,171.16Z" transform="translate(-126.01 -127.72)"/><path class="cls-1" d="M309.36,143.85h11.29L333.16,164l12.51-20.13H357v47.6H346.62V160.38l-13.4,20.33H333l-13.26-20.13v30.87H309.36v-47.6Z" transform="translate(-126.01 -127.72)"/><path class="cls-1" d="M381.23,143.51h9.66l20.4,47.94H400.34L396,180.78H375.86l-4.35,10.68H360.83Zm11,28-6.32-15.44-6.32,15.44h12.65Z" transform="translate(-126.01 -127.72)"/><path class="cls-1" d="M415.64,143.85h10.47v47.6H415.64v-47.6Z" transform="translate(-126.01 -127.72)"/><path class="cls-1" d="M434.54,143.85H445V182h23.73v9.45h-34.2v-47.6Z" transform="translate(-126.01 -127.72)"/></svg>